<svg xmlns="http://www.w3.org/2000/svg" xmlns:xlink="http://www.w3.org/1999/xlink" width="187.809" height="125.736" viewBox="0 0 187.809 125.736"><defs><style>.a{fill:#39bcda;}.b,.c{fill:#fff;}.b{font-size:25px;font-family:Misses;letter-spacing:0.022em;}.d{filter:url(#a);}</style><filter id="a" x="0" y="41.446" width="187.809" height="84.29" filterUnits="userSpaceOnUse"><feOffset dy="6" input="SourceAlpha"/><feGaussianBlur stdDeviation="5" result="b"/><feFlood flood-color="#070606" flood-opacity="0.557"/><feComposite operator="in" in2="b"/><feComposite in="SourceGraphic"/></filter></defs><g transform="translate(-209.996 -411.554)"><g class="d" transform="matrix(1, 0, 0, 1, 210, 411.55)"><rect class="a" width="157.809" height="54.29" rx="20" transform="translate(15 50.45)"/></g><text class="b" transform="translate(266 499)"><tspan x="0" y="0">Activities</tspan></text><g transform="translate(266.05 -376.546)"><g transform="translate(7.95 788.1)"><path class="c" d="M53.29,849.946a16.533,16.533,0,0,1-11.84-4.875l-11.84-11.84a1.379,1.379,0,0,0-1.95,1.95,7.036,7.036,0,0,1-4.875,11.979,7.709,7.709,0,0,1-5.015-2.089A33.361,33.361,0,0,1,41.45,788.1a33.648,33.648,0,0,1,23.68,9.75,33.292,33.292,0,0,1,0,47.22A17.126,17.126,0,0,1,53.29,849.946ZM28.635,830.027a3.794,3.794,0,0,1,2.925,1.254l11.84,11.84a14.126,14.126,0,0,0,19.78,0,30.681,30.681,0,1,0-43.459,0,4.3,4.3,0,0,0,5.85,0,4.039,4.039,0,0,0,0-5.85,4.039,4.039,0,0,1,0-5.85A4.159,4.159,0,0,1,28.635,830.027Z" transform="translate(-7.95 -788.1)"/></g><g transform="translate(47.718 802.134)"><path class="c" d="M42.072,809.214a5.058,5.058,0,0,1-3.9-1.672,5.5,5.5,0,0,1-1.672-3.9,5.271,5.271,0,0,1,1.672-3.9,5.811,5.811,0,0,1,7.94,0,5.55,5.55,0,0,1,0,7.94A6.068,6.068,0,0,1,42.072,809.214Zm0-8.358a2.758,2.758,0,0,0-1.95,4.736,2.758,2.758,0,1,0,3.9-3.9A2.75,2.75,0,0,0,42.072,800.856Z" transform="translate(-36.5 -798.175)"/></g><g transform="translate(56.772 817.317)"><path class="c" d="M47.179,817.328a3.793,3.793,0,0,1-2.925-1.254,4.039,4.039,0,0,1,0-5.85,4.3,4.3,0,0,1,5.85,0,4.009,4.009,0,0,1,1.254,2.925,3.794,3.794,0,0,1-1.254,2.925A4.643,4.643,0,0,1,47.179,817.328Zm0-5.572a1.264,1.264,0,0,0-.975.418,1.379,1.379,0,0,0,1.95,1.95,1.393,1.393,0,0,0-.975-2.368Z" transform="translate(-43 -809.075)"/></g><g transform="translate(46.325 828.216)"><path class="c" d="M42.465,830.829a6.534,6.534,0,0,1-4.875-2.089,7.094,7.094,0,0,1-2.089-4.875,6.534,6.534,0,0,1,2.089-4.875,7.093,7.093,0,0,1,4.875-2.089,6.534,6.534,0,0,1,4.875,2.089,7.152,7.152,0,0,1,0,9.89A6.961,6.961,0,0,1,42.465,830.829Zm0-11.143a3.794,3.794,0,0,0-2.925,1.254,4.009,4.009,0,0,0-1.254,2.925,3.794,3.794,0,0,0,1.254,2.925,4.3,4.3,0,0,0,5.85,0,4.179,4.179,0,0,0-2.925-7.1Z" transform="translate(-35.5 -816.9)"/></g><g transform="translate(31.003 799.209)"><path class="c" d="M30.072,807.114a5.058,5.058,0,0,1-3.9-1.672,5.5,5.5,0,0,1-1.672-3.9,5.058,5.058,0,0,1,1.672-3.9,5.811,5.811,0,0,1,7.94,0,5.5,5.5,0,0,1,1.672,3.9,5.058,5.058,0,0,1-1.672,3.9A6.071,6.071,0,0,1,30.072,807.114Zm0-8.358a2.758,2.758,0,0,0-1.95,4.736,2.692,2.692,0,0,0,3.9,0,2.786,2.786,0,0,0-1.95-4.736Z" transform="translate(-24.5 -796.075)"/></g></g></g></svg>