<svg xmlns="http://www.w3.org/2000/svg" width="22.78" height="22.775" viewBox="0 0 22.78 22.775"><defs><style>.a{fill:#918e8e;fill-rule:evenodd;}</style></defs><path class="a" d="M22.185,6.251l0,0c-.028.046-.054.094-.083.139l-.005-.005a.412.412,0,0,1-.583,0l-5.119-5.12a.412.412,0,0,1,0-.583L16.386.68c.045-.03.093-.055.139-.083l0,0a4.118,4.118,0,0,1,5.656,5.656ZM20.992,1.788a3.288,3.288,0,0,0-3.612-.7L21.688,5.4A3.288,3.288,0,0,0,20.992,1.788Zm.97,10.415a10.533,10.533,0,0,1-3.029,7.4l2.505,2.505a.388.388,0,1,1-.549.549l-2.525-2.525a10.529,10.529,0,0,1-13.95,0L1.888,22.659a.387.387,0,0,1-.548-.548L3.847,19.6a10.57,10.57,0,1,1,18.115-7.4ZM11.39,2.444A9.759,9.759,0,1,0,21.149,12.2,9.759,9.759,0,0,0,11.39,2.444Zm0,10.165H6.51a.407.407,0,1,1,0-.813h4.473V4.884a.407.407,0,1,1,.813,0V12.2A.406.406,0,0,1,11.39,12.61Zm-5-11.341L1.269,6.388a.412.412,0,0,1-.583,0L.68,6.394C.651,6.349.625,6.3.6,6.255l0,0A4.118,4.118,0,0,1,6.251.6l0,0c.046.028.094.054.139.083L6.388.686A.412.412,0,0,1,6.388,1.269Zm-4.6.519a3.288,3.288,0,0,0-.7,3.612L5.4,1.092A3.288,3.288,0,0,0,1.788,1.788Z" transform="translate(0)"/></svg>