<svg xmlns="http://www.w3.org/2000/svg" xmlns:xlink="http://www.w3.org/1999/xlink" width="187.809" height="103.806" viewBox="0 0 187.809 103.806"><defs><style>.a{fill:#4bb8ad;}.b,.c{fill:#fff;}.b{font-size:25px;font-family:Misses;}.c{fill-rule:evenodd;}.d{filter:url(#a);}</style><filter id="a" x="0" y="20.516" width="187.809" height="83.29" filterUnits="userSpaceOnUse"><feOffset dy="6" input="SourceAlpha"/><feGaussianBlur stdDeviation="5" result="b"/><feFlood flood-color="#070606" flood-opacity="0.557"/><feComposite operator="in" in2="b"/><feComposite in="SourceGraphic"/></filter></defs><g transform="translate(-17 -589.484)"><g class="d" transform="matrix(1, 0, 0, 1, 17, 589.48)"><rect class="a" width="157.809" height="53.29" rx="20" transform="translate(15 29.52)"/></g><text class="b" transform="translate(74 656)"><tspan x="0" y="0">Concerts</tspan></text><path class="c" d="M369.9,1494.76a1.117,1.117,0,0,1-1.051-.753c-.635-1.2-5.77-10.5-12.43-10.5v0c-.008,0-.015,0-.024,0H346.265v18.007h2.251a9,9,0,0,0,9-9,1.125,1.125,0,1,1,2.251,0,11.255,11.255,0,0,1-11.254,11.254h-2.251v5.627a1.125,1.125,0,1,1-2.251,0v-5.627h-4.5v5.627a1.125,1.125,0,1,1-2.251,0v-5.627h-4.5v5.627a1.125,1.125,0,1,1-2.251,0v-5.627h-2.251a11.244,11.244,0,0,1-6.731-20.258H310.251v4.5a1.125,1.125,0,0,1-2.251,0v-11.254a1.125,1.125,0,0,1,2.251,0v4.5h46.143c.009,0,.016,0,.024,0v0c6.66,0,11.8-9.3,12.43-10.5a1.119,1.119,0,0,1,2.177.373v22.509A1.124,1.124,0,0,1,369.9,1494.76Zm-39.39-11.254h-2.251a9,9,0,1,0,0,18.007h2.251Zm6.753,0h-4.5v18.007h4.5Zm6.753,0h-4.5v18.007h4.5Zm17-1.125c3.361,1.637,6.038,4.757,7.76,7.221v-14.442C367.052,1477.624,364.379,1480.739,361.014,1482.38ZM345.139,1479a4.475,4.475,0,0,1-3.376-1.552,4.447,4.447,0,0,1-6.753,0,4.5,4.5,0,1,1,0-5.9,4.446,4.446,0,0,1,6.753,0,4.494,4.494,0,1,1,3.376,7.45Zm-13.505-6.753a2.251,2.251,0,1,0,2.251,2.251A2.251,2.251,0,0,0,331.634,1472.251Zm6.753,0a2.251,2.251,0,1,0,2.251,2.251A2.251,2.251,0,0,0,338.387,1472.251Zm6.753,0a2.251,2.251,0,1,0,2.251,2.251A2.251,2.251,0,0,0,345.139,1472.251Z" transform="translate(-231 -880.516)"/></g></svg>