<svg xmlns="http://www.w3.org/2000/svg" xmlns:xlink="http://www.w3.org/1999/xlink" width="188.809" height="125.009" viewBox="0 0 188.809 125.009"><defs><style>.a{fill:#e37baf;}.b,.c{fill:#fff;}.b{font-size:25px;font-family:Misses;}.d{filter:url(#a);}</style><filter id="a" x="0" y="40.719" width="188.809" height="84.29" filterUnits="userSpaceOnUse"><feOffset dy="6" input="SourceAlpha"/><feGaussianBlur stdDeviation="5" result="b"/><feFlood flood-color="#070606" flood-opacity="0.557"/><feComposite operator="in" in2="b"/><feComposite in="SourceGraphic"/></filter></defs><g transform="translate(-16 -365.281)"><g class="d" transform="matrix(1, 0, 0, 1, 16, 365.28)"><rect class="a" width="158.809" height="54.29" rx="20" transform="translate(15 49.72)"/></g><text class="b" transform="translate(80 455)"><tspan x="0" y="0">Cuisine</tspan></text><g transform="translate(78 -37.719)"><g transform="translate(42.465 403)"><path class="c" d="M37.323,466.517A1.25,1.25,0,0,1,36,465.193v-60.87a1.323,1.323,0,1,1,2.647,0v60.87A1.25,1.25,0,0,1,37.323,466.517Z" transform="translate(-36 -403)"/></g><g transform="translate(42.465 403)"><path class="c" d="M45.263,444.021h-7.94a1.323,1.323,0,0,1,0-2.647H43.94c-.132-22.231-4.764-35.331-6.616-35.728A1.25,1.25,0,0,1,36,404.323,1.326,1.326,0,0,1,37.323,403c5.558,0,9.263,20.511,9.263,39.7A1.25,1.25,0,0,1,45.263,444.021Z" transform="translate(-36 -403)"/></g><g transform="translate(16 403)"><path class="c" d="M25.263,426.819A9.206,9.206,0,0,1,16,417.556V404.323a1.323,1.323,0,1,1,2.647,0v13.233a6.616,6.616,0,1,0,13.233,0V404.323a1.323,1.323,0,1,1,2.647,0v13.233A9.206,9.206,0,0,1,25.263,426.819Z" transform="translate(-16 -403)"/></g><g transform="translate(23.94 403)"><path class="c" d="M23.323,466.517A1.25,1.25,0,0,1,22,465.193v-60.87a1.323,1.323,0,1,1,2.647,0v60.87A1.25,1.25,0,0,1,23.323,466.517Z" transform="translate(-22 -403)"/></g></g></g></svg>