<svg xmlns="http://www.w3.org/2000/svg" xmlns:xlink="http://www.w3.org/1999/xlink" width="187.809" height="101.29" viewBox="0 0 187.809 101.29"><defs><style>.a{fill:#39bcda;}.b,.c{fill:#fff;}.b{font-size:25px;font-family:Misses;letter-spacing:0.014em;}.c{fill-rule:evenodd;}.d{filter:url(#a);}</style><filter id="a" x="0" y="17" width="187.809" height="84.29" filterUnits="userSpaceOnUse"><feOffset dy="6" input="SourceAlpha"/><feGaussianBlur stdDeviation="5" result="b"/><feFlood flood-color="#070606" flood-opacity="0.557"/><feComposite operator="in" in2="b"/><feComposite in="SourceGraphic"/></filter></defs><g transform="translate(-112.996 -270)"><g class="d" transform="matrix(1, 0, 0, 1, 113, 270)"><rect class="a" width="157.809" height="54.29" rx="20" transform="translate(15 26)"/></g><text class="b" transform="translate(174 336)"><tspan x="0" y="0">History</tspan></text><path class="c" d="M748,1784a11.993,11.993,0,0,1-23.82,2h-8.36a11.993,11.993,0,1,1-22.482-7.491l-.016-.01,11.313-19.938.019.012A4.982,4.982,0,0,1,713.9,1760h12.2a4.982,4.982,0,0,1,9.245-1.427l.019-.012,11.313,19.938-.016.01A11.932,11.932,0,0,1,748,1784Zm-32.151-1.785a11.868,11.868,0,0,1,.146,1.688v.011h0c0,.028,0,.057,0,.086h8c0-.029,0-.058,0-.086h0v-.011a11.868,11.868,0,0,1,.146-1.688l.019-.215h-8.34Zm-3.53-17.5,0,0-.316-3.623h-.01c0-.033.01-.062.01-.094a2.99,2.99,0,0,0-5.623-1.428l-.013-.007-7.8,13.745a11.943,11.943,0,0,1,14.779,3.191Zm1.533,17.639a9.944,9.944,0,1,0,.147,1.676Zm.239-20.352,1.565,18h8.688l1.565-18Zm19.545-2.435-.013.007A2.99,2.99,0,0,0,728,1761c0,.032.009.061.01.094H728l-.315,3.624,0-.005-1.025,11.788a11.943,11.943,0,0,1,14.779-3.191ZM736,1774a9.994,9.994,0,0,0-9.853,8.353l-.146,1.674A10,10,0,1,0,736,1774Zm-14-7h-4a1,1,0,0,1,0-2h4a1,1,0,0,1,0,2Z" transform="translate(-513 -1486)"/></g></svg>