<svg xmlns="http://www.w3.org/2000/svg" xmlns:xlink="http://www.w3.org/1999/xlink" width="187.809" height="124.29" viewBox="0 0 187.809 124.29"><defs><style>.a{fill:#c665d8;}.b,.c{fill:#fff;}.b{font-size:25px;font-family:Misses;letter-spacing:0.012em;}.c{fill-rule:evenodd;}.d{filter:url(#a);}</style><filter id="a" x="0" y="41" width="187.809" height="83.29" filterUnits="userSpaceOnUse"><feOffset dy="6" input="SourceAlpha"/><feGaussianBlur stdDeviation="5" result="b"/><feFlood flood-color="#070606" flood-opacity="0.557"/><feComposite operator="in" in2="b"/><feComposite in="SourceGraphic"/></filter></defs><g transform="translate(-209.996 -569)"><g class="d" transform="matrix(1, 0, 0, 1, 210, 569)"><rect class="a" width="157.809" height="53.29" rx="20" transform="translate(15 50)"/></g><text class="b" transform="translate(260 658)"><tspan x="0" y="0">Landmark</tspan></text><path class="c" d="M859,947.589a1.267,1.267,0,0,1-1.268,1.268H789.268A1.267,1.267,0,0,1,788,947.589a1.238,1.238,0,0,1,.176-.606l-.016-.009,12.679-22.821.016.009a1.254,1.254,0,0,1,1.092-.662h2.536a1.268,1.268,0,1,1,0,2.536h-1.789l-11.271,20.286h64.156l-11.27-20.286h-1.79a1.268,1.268,0,1,1,0-2.536h2.536a1.254,1.254,0,0,1,1.092.662l.016-.009,12.679,22.821-.016.009A1.239,1.239,0,0,1,859,947.589Zm-55.786-39.3a20.286,20.286,0,1,1,40.571,0c0,12.679-20.286,32.964-20.286,32.964S803.214,920.964,803.214,908.286Zm20.286-17.75a17.75,17.75,0,0,0-17.75,17.75c0,10.143,17.75,29.161,17.75,29.161s17.75-19.018,17.75-29.161A17.75,17.75,0,0,0,823.5,890.536Zm-10.143,17.75A10.143,10.143,0,1,1,823.5,918.429,10.143,10.143,0,0,1,813.357,908.286Zm17.75,0a7.607,7.607,0,1,0-7.607,7.607A7.608,7.608,0,0,0,831.107,908.286Z" transform="translate(-522 -319)"/></g></svg>