<svg xmlns="http://www.w3.org/2000/svg" width="14.237" height="21.356" viewBox="0 0 14.237 21.356"><defs><style>.a{fill:#918e8e;}</style></defs><g transform="translate(0)"><g transform="translate(0)"><path class="a" d="M214.119,712.356a.549.549,0,0,1-.356-.178c-.267-.4-6.763-10.278-6.763-14.059a7.119,7.119,0,0,1,14.237,0c0,3.782-6.451,13.614-6.763,14.059A.549.549,0,0,1,214.119,712.356Zm0-20.466a6.247,6.247,0,0,0-6.229,6.229c0,3.025,4.85,10.811,6.229,12.992,1.379-2.18,6.229-9.966,6.229-12.992A6.247,6.247,0,0,0,214.119,691.89Z" transform="translate(-207 -691)"/></g><g transform="translate(4.004 4.004)"><path class="a" d="M219.114,706.229a3.114,3.114,0,1,1,3.114-3.114A3.1,3.1,0,0,1,219.114,706.229Zm0-5.339a2.225,2.225,0,1,0,2.225,2.225A2.2,2.2,0,0,0,219.114,700.89Z" transform="translate(-216 -700)"/></g></g></svg>