<svg xmlns="http://www.w3.org/2000/svg" width="28.579" height="28.579" viewBox="0 0 28.579 28.579"><defs><style>.a{fill:#050505;fill-rule:evenodd;}</style></defs><path class="a" d="M28.068,14.8H26.511A12.23,12.23,0,0,1,14.8,26.512v1.556a.51.51,0,0,1-1.021,0V26.512A12.23,12.23,0,0,1,2.067,14.8H.51a.51.51,0,1,1,0-1.021H2.067A12.23,12.23,0,0,1,13.779,2.066V.51A.51.51,0,1,1,14.8.51V2.066A12.23,12.23,0,0,1,26.511,13.779h1.557a.51.51,0,1,1,0,1.021ZM14.8,3.087V4.593a.51.51,0,0,1-1.021,0V3.087A11.209,11.209,0,0,0,3.088,13.779h1.5a.51.51,0,1,1,0,1.021h-1.5A11.209,11.209,0,0,0,13.779,25.492V23.986a.51.51,0,1,1,1.021,0v1.506A11.209,11.209,0,0,0,25.491,14.8H23.986a.51.51,0,0,1,0-1.021h1.505A11.209,11.209,0,0,0,14.8,3.087Zm-.51,14.264a3.062,3.062,0,1,1,3.062-3.062A3.062,3.062,0,0,1,14.289,17.351Zm0-5.1a2.041,2.041,0,1,0,2.041,2.041A2.041,2.041,0,0,0,14.289,12.248Z" transform="translate(0)"/></svg>