<svg xmlns="http://www.w3.org/2000/svg" viewBox="0 0 415.38 248.76"><defs><style>.cls-1{fill:#231f20;}.cls-2{opacity:0.35;}.cls-3{fill:none;stroke:#fff;stroke-miterlimit:10;stroke-width:0.25px;}.cls-4{fill:#f06da9;}.cls-5{fill:#ed91bd;}.cls-6{fill:#17c0f0;}.cls-7{fill:#56c3bb;}.cls-8{fill:#fff;}</style></defs><title>LOGO4</title><g id="Layer_2" data-name="Layer 2"><g id="Layer_1-2" data-name="Layer 1"><rect class="cls-1" width="415.38" height="248.76"/><g class="cls-2"><line class="cls-3" x1="167.2" y1="42.39" x2="207.89" y2="158.33"/><path class="cls-3" d="M78.38,150.14C84.15,124.3,96.72,64.82,166,43.25s153.13,7.21,168.31,99.84"/><path class="cls-3" d="M166,43.25c-8.59,2.86-71.14,36.1-32,163.15"/><path class="cls-3" d="M172.51,41.63c10.43-2.18,86.49-5.29,118.75,118.84"/><line class="cls-3" x1="80.14" y1="144.83" x2="299.08" y2="71.53"/><line class="cls-3" x1="107.51" y1="190.77" x2="327.42" y2="119.42"/></g><path class="cls-4" d="M131.06,118.34l9.41,32.2,4.27,14.27,3.84,12.92.52,1.65H122.82l-8.27-30.56L96.69,175.66,78.38,150.14q-2.66,9.35-5.79,22.92A39.06,39.06,0,0,1,71,179.22a2,2,0,0,1-2,1c-1.27,0-1.9-.44-1.9-1.3a40.37,40.37,0,0,1,1.21-4.37l2.68-9.2,4.68-15.91,9.13-31.08,23.67,34.3Z"/><path class="cls-5" d="M157.25,146.91h.14a5.92,5.92,0,0,1,4.15,1.72,5.72,5.72,0,0,1,0,8.06,5.69,5.69,0,0,1-4.15,1.64,5.59,5.59,0,0,1-2.88-.77,5.7,5.7,0,0,1-2.11-2.11,5.32,5.32,0,0,1-.8-2.84,5.68,5.68,0,0,1,.75-2.88,5.27,5.27,0,0,1,2.09-2.07A5.55,5.55,0,0,1,157.25,146.91Z"/><path class="cls-6" d="M195.54,120.37v3l-.26,23.69.26,32.29H169.08l.26-35.32-.3-21.57,0-2.12Z"/><path class="cls-5" d="M207.75,146.91h.14a5.94,5.94,0,0,1,4.15,1.72,5.72,5.72,0,0,1,0,8.06,5.84,5.84,0,0,1-9.14-1.24,5.23,5.23,0,0,1-.8-2.84,5.68,5.68,0,0,1,.75-2.88,5.24,5.24,0,0,1,2.08-2.07A5.62,5.62,0,0,1,207.75,146.91Z"/><path class="cls-7" d="M250.25,116.83l34.56,62.55h-30l-4.17-7.92H236.18l-12.75,0-2.15,0-2.85,5.28a19.27,19.27,0,0,1-1.75,3,1.58,1.58,0,0,1-1.24.58c-1,0-1.48-.44-1.48-1.3a5.7,5.7,0,0,1,.85-2.1q.84-1.53,5.9-10.09l26.17-44.05Zm-13.45,28.4-7.55,12.7-6,10.47,12.89.17L249,168.4Z"/><path class="cls-8" d="M242.05,195.85a30.45,30.45,0,0,1-4.38,13.63,13.12,13.12,0,0,1-6.93,5.76c-3.58,1.15-6.48-.26-8.68-4.26q-2,7.52-7.11,9.18a8.13,8.13,0,0,1-7-.64,10.71,10.71,0,0,1-4.56-6.28,19.21,19.21,0,0,1-.73-8.93c.22-1.45.43-2.66.63-3.64s.47-2,.8-3.14.51-1.7.55-1.77c.46-1.59,1.16-2.53,2.1-2.83a3.41,3.41,0,0,1,2.56.08c.77.35,1.21.7,1.32,1a1.89,1.89,0,0,1,.11.87c-.35.86-.61,1.55-.76,2.05s-.34,1.12-.57,1.82a19.91,19.91,0,0,0-.28,12q1.6,5,4.65,4,3.9-1.26,5.11-13.26l.34-3.21c-.24-5,.36-7.78,1.82-8.25l.23-.07c1.82-.59,2.91-.31,3.28.83.27.84.2,2.75-.21,5.75a22.42,22.42,0,0,0,.47,9.75c1,3.11,2.57,4.33,4.7,3.64q2.58-.83,4.39-4.29a22.06,22.06,0,0,0,2.29-7.84,13.85,13.85,0,0,0,.33-1.65,11.73,11.73,0,0,1-5.64-2.41,9.43,9.43,0,0,1-3.22-4.51,6.38,6.38,0,0,1,.4-5,7.35,7.35,0,0,1,4.6-3.5,6.26,6.26,0,0,1,5.2.77,8.11,8.11,0,0,1,3.29,4.49,20,20,0,0,1,1,5.35,30.78,30.78,0,0,0,7.06-4,2.47,2.47,0,0,1,1.16-.8,1.66,1.66,0,0,1,1.42.27,2.83,2.83,0,0,1,1.11,1.58,1.57,1.57,0,0,1-.69,1.86,26,26,0,0,1-9,5.29Zm-9.33-7.32A5.06,5.06,0,0,0,237,192a14.3,14.3,0,0,0-.44-4.59c-.61-1.87-1.5-2.61-2.7-2.22a1.82,1.82,0,0,0-1.18,1.28A3.43,3.43,0,0,0,232.72,188.53Z"/><path class="cls-8" d="M257.67,205.87a8.57,8.57,0,0,1-7.29-.74,10.73,10.73,0,0,1-4.76-6.21,18,18,0,0,1,.52-12.69q2.56-6.3,8.19-8.1a7.6,7.6,0,0,1,6.24.56,8.69,8.69,0,0,1,4.14,5.21,17.61,17.61,0,0,1,.49,2.6q4.76-2.56,7.94-9.79a1.18,1.18,0,0,1,.72-.58,1.52,1.52,0,0,1,1.29.41,2.57,2.57,0,0,1,1,1.3,1.51,1.51,0,0,1,0,1.15A25.87,25.87,0,0,1,266,191.74Q266.8,202.93,257.67,205.87Zm-.44-5.36c1.36-.44,2.37-1.6,3.06-3.48a9.38,9.38,0,0,0,.53-5.16q-3.29-.31-3.92-2.27a5.86,5.86,0,0,1,.77-4.55,2.54,2.54,0,0,0-1-1.32,1.67,1.67,0,0,0-1.36-.08q-3,1-4,5.1a14.42,14.42,0,0,0,.22,7.89Q253.27,201.79,257.23,200.51Z"/><path class="cls-8" d="M277,188.38a42.43,42.43,0,0,1,2-11.83q2-6.93,4.44-7.72c2.28-.73,3.71-.22,4.28,1.55a12.08,12.08,0,0,1,.45,4.2,13.33,13.33,0,0,0,0,2.95c.25.78.93,1,2.05.63s2.71-1.7,4.77-4a1.86,1.86,0,0,1,.6-.28c.31-.1.81.06,1.48.47a2.58,2.58,0,0,1,1.23,1.28,1.38,1.38,0,0,1,0,1.08q-3.33,5.72-7.77,7.15c-3.53,1.13-5.79.2-6.76-2.82,0-.1-.16-1.92-.38-5.47a16.36,16.36,0,0,0-.65,2.28,97.42,97.42,0,0,0-2.12,18,3.64,3.64,0,0,1-2.7,3.1q-3.2,1-4.85-4.11l-.2-.62A59.89,59.89,0,0,1,270,176.94q0-3.88,2.61-4.72a2.37,2.37,0,0,1,1.84.1,2.21,2.21,0,0,1,1.13,1.36Z"/><path class="cls-8" d="M309,189.17a7.14,7.14,0,0,1-7-1.23q-3.12-2.48-4.88-7.93-.52-1.63-.72-2.52A87.46,87.46,0,0,1,294.71,152a33.73,33.73,0,0,1,2.87-11.64q2.34-5,6.32-6.29a5.1,5.1,0,0,1,4.23.31,5.6,5.6,0,0,1,2.62,3.33l.21.63q1.76,8.12-1.1,18.51a59.93,59.93,0,0,1-7.92,17.87,34.52,34.52,0,0,0,.92,3.92c1.35,4.2,3.28,5.91,5.77,5.1s4.9-3.58,6.9-8.24a2,2,0,0,1,1.19-1,2.43,2.43,0,0,1,1.77.17,2.19,2.19,0,0,1,1.27,1.39,3.12,3.12,0,0,1-.3,2.29Q315.7,187,309,189.17Zm-5-48q-3.27,1-3.9,10.46a77.47,77.47,0,0,0,.62,17.27,77.12,77.12,0,0,0,4.69-14.42q1.75-7.78.42-12.18C305.51,141.21,304.9,140.83,304,141.12Z"/><path class="cls-8" d="M315.1,177.13a19.56,19.56,0,0,1,.3-13q2.36-6.57,7.58-8.25a8.88,8.88,0,0,1,2.88-.41q-4.75-27,6.16-30.56a5.73,5.73,0,0,1,4.44.29,5.83,5.83,0,0,1,2.93,3.1A14.67,14.67,0,0,1,340,130a30.87,30.87,0,0,1,.57,15.4c-.59,3.17-1.08,5.59-1.49,7.27s-1.18,4.4-2.32,8.15-1.79,5.92-1.95,6.48l.22.7c1.44,4.48,3.36,6.32,5.75,5.55q4.05-1.31,6.58-8.4a1.8,1.8,0,0,1,1.13-.79,2.51,2.51,0,0,1,1.86.17,2.27,2.27,0,0,1,1.31,1.39,3.16,3.16,0,0,1-.05,2q-3.17,8.59-9.87,10.76-5.24,1.68-9.38-2.92a8.59,8.59,0,0,1-6.4,8.17,7.53,7.53,0,0,1-6.44-.76A10.28,10.28,0,0,1,315.1,177.13Zm10.35.88a4.3,4.3,0,0,0,2.88-3.21c.47-1.67.37-4.4-.28-8.21l-1-6.23a8.87,8.87,0,0,0-5.76,5.64,12.56,12.56,0,0,0-.26,8.52l.27.86Q322.73,178.89,325.45,178Zm7.48-46.21c-1.71.55-2.64,2.4-2.77,5.54a55,55,0,0,0-.08,5.75q.09,3.38,2.45,16.55.15-.57.27-1.29c.07-.14.39-1.29.95-3.45s1-4.16,1.42-6a52.79,52.79,0,0,0,.85-7.24,20.22,20.22,0,0,0-.66-7.4C334.73,132.3,333.92,131.48,332.93,131.8Z"/></g></g></svg>