<?xml version="1.0" encoding="utf-8"?>
<!-- Generator: Adobe Illustrator 23.0.2, SVG Export Plug-In . SVG Version: 6.00 Build 0)  -->
<svg version="1.1" id="Layer_1" xmlns="http://www.w3.org/2000/svg" xmlns:xlink="http://www.w3.org/1999/xlink" x="0px" y="0px"
	 viewBox="0 0 312.8 229.2" style="enable-background:new 0 0 312.8 229.2;" xml:space="preserve">
<style type="text/css">
	.st0{opacity:0.35;}
	.st1{fill:none;stroke:#FFFFFF;stroke-width:0.75;stroke-miterlimit:10;}
	.st2{fill:none;stroke:#FFFFFF;stroke-width:0.25;stroke-miterlimit:10;}
	.st3{fill:#F06DA9;}
	.st4{fill:#ED91BD;}
	.st5{fill:#17C0F0;}
	.st6{fill:#56C3BB;}
	.st7{fill:#FFFFFF;}
</style>
<g>
	<g class="st0">
		<line class="st1" x1="115.7" y1="30.8" x2="156.4" y2="146.7"/>
		<path class="st1" d="M26.9,138.5c5.8-25.8,18.3-85.3,87.6-106.9s153.1,7.2,168.3,99.8"/>
		<path class="st1" d="M114.5,31.7c-8.6,2.9-71.1,36.1-32.1,163.2"/>
		<path class="st1" d="M121,30c10.4-2.2,86.5-5.3,118.8,118.8"/>
		<line class="st1" x1="28.6" y1="133.2" x2="247.6" y2="59.9"/>
		<line class="st2" x1="56" y1="179.2" x2="275.9" y2="107.8"/>
	</g>
	<g>
		<path class="st3" d="M79.6,106.7l9.4,32.2l4.3,14.3l3.8,12.9l0.5,1.6H71.3l-8.3-30.6l-17.9,26.8l-18.3-25.5
			c-1.8,6.2-3.7,13.9-5.8,22.9c-0.8,3.5-1.3,5.5-1.6,6.2s-1,1-2,1c-1.3,0-1.9-0.4-1.9-1.3c0-0.3,0.4-1.7,1.2-4.4l2.7-9.2l4.7-15.9
			l9.1-31.1L56.9,141L79.6,106.7z"/>
		<path class="st4" d="M105.7,135.3h0.1c1.7,0,3,0.6,4.1,1.7c1.1,1.1,1.7,2.4,1.7,4c0,1.6-0.6,3-1.7,4.1c-1.1,1.1-2.5,1.6-4.1,1.6
			c-1,0-2-0.3-2.9-0.8c-0.9-0.5-1.6-1.2-2.1-2.1c-0.5-0.9-0.8-1.8-0.8-2.8c0-1,0.2-2,0.8-2.9c0.5-0.9,1.2-1.6,2.1-2.1
			C103.8,135.6,104.7,135.3,105.7,135.3z"/>
		<path class="st5" d="M144,108.8v3l-0.3,23.7l0.3,32.3h-26.5l0.3-35.3l-0.3-21.6l0-2.1H144z"/>
		<path class="st4" d="M156.2,135.3h0.1c1.7,0,3,0.6,4.1,1.7c1.1,1.1,1.7,2.4,1.7,4c0,1.6-0.6,3-1.7,4.1c-1.1,1.1-2.5,1.6-4.1,1.6
			c-1,0-2-0.3-2.9-0.8c-0.9-0.5-1.6-1.2-2.1-2.1c-0.5-0.9-0.8-1.8-0.8-2.8c0-1,0.2-2,0.8-2.9c0.5-0.9,1.2-1.6,2.1-2.1
			C154.3,135.6,155.2,135.3,156.2,135.3z"/>
		<path class="st6" d="M198.8,105.2l34.6,62.5h-30l-4.2-7.9h-14.5l-12.8,0l-2.2,0l-2.8,5.3c-0.8,1.6-1.4,2.6-1.8,3
			c-0.3,0.4-0.7,0.6-1.2,0.6c-1,0-1.5-0.4-1.5-1.3c0-0.4,0.3-1.1,0.8-2.1c0.6-1,2.5-4.4,5.9-10.1l26.2-44L198.8,105.2z M185.3,133.6
			l-7.6,12.7l-6,10.5l12.9,0.2l12.9-0.2L185.3,133.6z"/>
	</g>
	<g>
		<path class="st7" d="M190.6,184.3c-0.5,5.3-2,9.9-4.4,13.6c-1.9,3-4.2,4.9-6.9,5.8c-3.6,1.2-6.5-0.3-8.7-4.3
			c-1.3,5-3.7,8.1-7.1,9.2c-2.5,0.8-4.9,0.6-7-0.6c-2.1-1.2-3.6-3.3-4.6-6.3c-0.9-2.9-1.2-5.9-0.7-8.9c0.2-1.4,0.4-2.7,0.6-3.6
			c0.2-1,0.5-2,0.8-3.1s0.5-1.7,0.5-1.8c0.5-1.6,1.2-2.5,2.1-2.8c0.9-0.3,1.8-0.3,2.6,0.1c0.8,0.4,1.2,0.7,1.3,1
			c0.1,0.3,0.1,0.6,0.1,0.9c-0.4,0.9-0.6,1.5-0.8,2.1c-0.2,0.5-0.3,1.1-0.6,1.8c-1.3,4.4-1.4,8.4-0.3,12c1.1,3.3,2.6,4.7,4.6,4
			c2.6-0.8,4.3-5.3,5.1-13.3l0.3-3.2c-0.2-5,0.4-7.8,1.8-8.2l0.2-0.1c1.8-0.6,2.9-0.3,3.3,0.8c0.3,0.8,0.2,2.7-0.2,5.7
			c-0.5,3.9-0.4,7.1,0.5,9.7c1,3.1,2.6,4.3,4.7,3.6c1.7-0.6,3.2-2,4.4-4.3c1.2-2.3,2-4.9,2.3-7.8c0.1-0.4,0.2-0.9,0.3-1.7
			c-2.2-0.3-4.1-1.1-5.6-2.4c-1.6-1.3-2.7-2.8-3.2-4.5c-0.6-1.7-0.4-3.4,0.4-5c0.8-1.6,2.4-2.8,4.6-3.5c1.9-0.5,3.6-0.2,5.2,0.8
			c1.6,1,2.7,2.5,3.3,4.5c0.6,2,1,3.8,1,5.3c2.1-0.8,4.5-2.1,7.1-4c0.3-0.4,0.7-0.7,1.2-0.8c0.4-0.1,0.9-0.1,1.4,0.3
			c0.5,0.3,0.9,0.9,1.1,1.6c0.2,0.7,0,1.3-0.7,1.9c-3,2.6-6,4.3-9,5.3L190.6,184.3z M181.2,176.9c0.6,1.9,2,3,4.3,3.4
			c0.1-2-0.1-3.5-0.4-4.6c-0.6-1.9-1.5-2.6-2.7-2.2c-0.6,0.2-1,0.6-1.2,1.3S181,176.2,181.2,176.9z"/>
		<path class="st7" d="M206.2,194.3c-2.6,0.8-5,0.6-7.3-0.7c-2.3-1.3-3.9-3.4-4.8-6.2c-1.4-4.3-1.2-8.5,0.5-12.7
			c1.7-4.2,4.4-6.9,8.2-8.1c2.2-0.7,4.3-0.5,6.2,0.6c2,1.1,3.4,2.8,4.1,5.2c0.2,0.5,0.3,1.4,0.5,2.6c3.2-1.7,5.8-5,7.9-9.8
			c0.1-0.3,0.4-0.5,0.7-0.6c0.3-0.1,0.8,0,1.3,0.4c0.5,0.4,0.9,0.8,1,1.3c0.2,0.5,0.2,0.9,0,1.2c-2.1,5.4-5.5,9.7-10.2,12.7
			C215,187.6,212.3,192.3,206.2,194.3z M205.7,188.9c1.4-0.4,2.4-1.6,3.1-3.5c0.7-1.9,0.9-3.6,0.5-5.2c-2.2-0.2-3.5-1-3.9-2.3
			c-0.4-1.3-0.2-2.8,0.8-4.6c-0.3-0.7-0.6-1.1-1-1.3c-0.4-0.2-0.8-0.2-1.4-0.1c-2,0.6-3.3,2.3-3.9,5.1c-0.7,2.8-0.6,5.4,0.2,7.9
			C201.2,188.5,203.1,189.8,205.7,188.9z"/>
		<path class="st7" d="M225.5,176.8c0-3.3,0.6-7.2,2-11.8c1.4-4.6,2.8-7.2,4.4-7.7c2.3-0.7,3.7-0.2,4.3,1.5c0.4,1.1,0.5,2.5,0.5,4.2
			s-0.1,2.6,0,3c0.3,0.8,0.9,1,2.1,0.6c1.1-0.4,2.7-1.7,4.8-4c0.1-0.1,0.3-0.2,0.6-0.3c0.3-0.1,0.8,0.1,1.5,0.5
			c0.7,0.4,1.1,0.8,1.2,1.3c0.1,0.4,0.1,0.8,0,1.1c-2.2,3.8-4.8,6.2-7.8,7.1c-3.5,1.1-5.8,0.2-6.8-2.8c0-0.1-0.2-1.9-0.4-5.5
			c-0.1,0-0.3,0.8-0.6,2.3c-1.1,4.8-1.8,10.8-2.1,18c-0.2,1.6-1.1,2.6-2.7,3.1c-2.1,0.7-3.7-0.7-4.9-4.1l-0.2-0.6
			c-1.8-5.6-2.8-11.4-2.9-17.2c0-2.6,0.9-4.2,2.6-4.7c0.7-0.2,1.3-0.2,1.8,0.1c0.5,0.3,0.9,0.7,1.1,1.4L225.5,176.8z"/>
		<path class="st7" d="M257.5,177.6c-2.6,0.8-4.9,0.4-7-1.2c-2.1-1.7-3.7-4.3-4.9-7.9c-0.4-1.1-0.6-1.9-0.7-2.5
			c-1.8-7.8-2.3-16.2-1.7-25.5c0.4-4.4,1.3-8.3,2.9-11.6c1.6-3.3,3.7-5.4,6.3-6.3c1.6-0.5,3-0.4,4.2,0.3c1.3,0.7,2.1,1.8,2.6,3.3
			l0.2,0.6c1.2,5.4,0.8,11.6-1.1,18.5c-1.9,6.9-4.5,12.9-7.9,17.9c0.3,1.7,0.6,3,0.9,3.9c1.4,4.2,3.3,5.9,5.8,5.1
			c2.6-0.8,4.9-3.6,6.9-8.2c0.2-0.5,0.6-0.8,1.2-1c0.5-0.2,1.1-0.1,1.8,0.2c0.6,0.3,1.1,0.7,1.3,1.4c0.2,0.7,0.1,1.4-0.3,2.3
			C265.5,172.5,262,176.1,257.5,177.6z M252.5,129.5c-2.2,0.7-3.5,4.2-3.9,10.5c-0.4,6.3-0.2,12,0.6,17.3c2-4.4,3.5-9.2,4.7-14.4
			c1.2-5.2,1.3-9.3,0.4-12.2C254,129.6,253.4,129.2,252.5,129.5z"/>
		<path class="st7" d="M263.6,165.5c-1.4-4.3-1.3-8.6,0.3-13c1.6-4.4,4.1-7.1,7.6-8.3c0.9-0.3,1.8-0.4,2.9-0.4
			c-3.2-18-1.1-28.2,6.2-30.6c1.6-0.5,3-0.4,4.4,0.3c1.4,0.7,2.4,1.7,2.9,3.1c0.2,0.3,0.4,0.9,0.6,1.6c1.5,4.6,1.7,9.7,0.6,15.4
			c-0.6,3.2-1.1,5.6-1.5,7.3c-0.4,1.7-1.2,4.4-2.3,8.1c-1.1,3.8-1.8,5.9-2,6.5l0.2,0.7c1.4,4.5,3.4,6.3,5.7,5.5
			c2.7-0.9,4.9-3.7,6.6-8.4c0.2-0.3,0.5-0.6,1.1-0.8c0.6-0.2,1.2-0.1,1.9,0.2c0.7,0.3,1.1,0.8,1.3,1.4s0.2,1.3,0,2
			c-2.1,5.7-5.4,9.3-9.9,10.8c-3.5,1.1-6.6,0.2-9.4-2.9c-0.3,4.2-2.5,6.9-6.4,8.2c-2.2,0.7-4.4,0.5-6.4-0.8
			C266,170.3,264.5,168.3,263.6,165.5z M274,166.4c1.5-0.5,2.4-1.5,2.9-3.2c0.5-1.7,0.4-4.4-0.3-8.2l-1-6.2
			c-2.8,0.9-4.7,2.8-5.8,5.6c-1.1,2.9-1.2,5.7-0.3,8.5l0.3,0.9C270.8,166.1,272.1,167,274,166.4z M281.4,120.2
			c-1.7,0.6-2.6,2.4-2.8,5.5c-0.1,1.6-0.1,3.5-0.1,5.7c0.1,2.2,0.9,7.8,2.4,16.6c0.1-0.4,0.2-0.8,0.3-1.3c0.1-0.1,0.4-1.3,1-3.4
			c0.6-2.2,1-4.2,1.4-6c0.4-1.8,0.7-4.3,0.8-7.2c0.2-3,0-5.5-0.7-7.4C283.2,120.7,282.4,119.9,281.4,120.2z"/>
	</g>
</g>
</svg>
