<svg xmlns="http://www.w3.org/2000/svg" width="14.644" height="20.502" viewBox="0 0 14.644 20.502"><defs><style>.a{fill:#918e8e;fill-rule:evenodd;}</style></defs><path class="a" d="M13.912,20.5H.732A.732.732,0,0,1,0,19.77V.732A.732.732,0,0,1,.732,0h13.18a.732.732,0,0,1,.732.732V19.77A.732.732,0,0,1,13.912,20.5Zm0-19.77H.732V19.77h13.18ZM2.563,2.2H6.224a.366.366,0,1,1,0,.732H2.563a.366.366,0,1,1,0-.732Zm0,2.2H6.224a.366.366,0,0,1,0,.732H2.563a.366.366,0,0,1,0-.732Zm0,2.2H6.224a.366.366,0,1,1,0,.732H2.563a.366.366,0,1,1,0-.732Zm0,2.2h9.519a.366.366,0,1,1,0,.732H2.563a.366.366,0,1,1,0-.732Zm0,2.2h9.519a.366.366,0,1,1,0,.732H2.563a.366.366,0,1,1,0-.732Zm0,2.2h9.519a.366.366,0,1,1,0,.732H2.563a.366.366,0,1,1,0-.732Zm0,2.2h9.519a.366.366,0,0,1,0,.732H2.563a.366.366,0,0,1,0-.732Zm0,2.2H9.885a.366.366,0,0,1,0,.732H2.563a.366.366,0,1,1,0-.732ZM12.081,7.322H8.42a.366.366,0,0,1-.366-.366V2.563A.366.366,0,0,1,8.42,2.2h3.661a.366.366,0,0,1,.366.366V6.956A.366.366,0,0,1,12.081,7.322Zm-.366-4.393H8.786V6.59h2.929Z" transform="translate(0)"/></svg>