<svg xmlns="http://www.w3.org/2000/svg" width="25.921" height="25.943" viewBox="0 0 25.921 25.943"><defs><style>.a{fill:#050505;fill-rule:evenodd;}</style></defs><path class="a" d="M25.367,23.089a6.508,6.508,0,0,1-4.72,2.846c-.1.006-.208.009-.313.009-3.171,0-7.185-2.536-12.586-7.943L7.7,17.955C2.037,11.673-.309,7.646.032,4.831.266,2.9,1.718,1.753,3.185.74A2.89,2.89,0,0,1,5.445.035C6.593.243,7.664,1.319,9.4,4.006c2.12,3.285,1.519,4.152.277,5.19-.115.1-.235.2-.354.3l-.042.034a1.425,1.425,0,0,0-.56.773.419.419,0,0,0,.156.347c.906.907,3.115,3.3,3.115,3.3l-.005.005c.094.089,2.451,2.357,3.37,3.222a.52.52,0,0,0,.387.16,1.811,1.811,0,0,0,.988-.553l.035-.034c.1-.09.2-.179.3-.265,1.175-1.06,2.053-1.607,5.182.454,2.18,1.436,3.441,2.912,3.646,4.266A2.316,2.316,0,0,1,25.367,23.089Zm-.391-1.752c-.164-1.084-1.319-2.383-3.251-3.655-2.676-1.763-3.128-1.354-4.03-.54-.095.086-.193.175-.3.264a2.648,2.648,0,0,1-1.623.828,1.47,1.47,0,0,1-1.065-.413c-.939-.884-3.385-3.223-3.385-3.223l.005-.006c-.011-.012-2.229-2.422-3.12-3.315A1.3,1.3,0,0,1,7.8,10.23a2.238,2.238,0,0,1,.91-1.4c.123-.111.246-.213.364-.312.87-.727,1.395-1.166-.458-4.037C7.1,2.131,6.1,1.066,5.276.917a2.059,2.059,0,0,0-1.544.547C2.1,2.593,1.123,3.519.951,4.935c-.3,2.506,2.07,6.462,7.468,12.447,5.3,5.308,9.28,7.811,12.176,7.657,1.5-.081,2.709-.831,4.047-2.508A1.445,1.445,0,0,0,24.977,21.336Z" transform="translate(0)"/></svg>