<svg xmlns="http://www.w3.org/2000/svg" width="25.569" height="22.83" viewBox="0 0 25.569 22.83"><defs><style>.a{fill:#050505;fill-rule:evenodd;}</style></defs><path class="a" d="M12.785,20.09a16.22,16.22,0,0,1-2.615-.212C7.528,22.828,2.74,22.83,2.74,22.83a7.9,7.9,0,0,0,2.778-4.525C2.186,16.491,0,13.471,0,10.045,0,4.5,5.724,0,12.785,0S25.57,4.5,25.57,10.045,19.846,20.09,12.785,20.09Zm0-19.177C6.228.913.913,5,.913,10.045c0,3.227,2.181,6.057,5.466,7.681A6.476,6.476,0,0,1,4.766,21.8a8.127,8.127,0,0,0,5.04-2.927,15.212,15.212,0,0,0,2.979.3c6.556,0,11.872-4.088,11.872-9.132S19.341.913,12.785.913Z" transform="translate(0)"/></svg>