<svg xmlns="http://www.w3.org/2000/svg" width="25.939" height="23.16" viewBox="0 0 25.939 23.16"><defs><style>.a{fill:#050505;fill-rule:evenodd;}</style></defs><path class="a" d="M704.969,526.16C702.19,523.38,692,518.749,692,510.411a7.4,7.4,0,0,1,12.969-4.891,7.4,7.4,0,0,1,12.969,4.891C717.939,518.749,707.749,523.38,704.969,526.16Zm5.558-22.233a6.475,6.475,0,0,0-5.558,3.157,6.48,6.48,0,0,0-12.043,3.328c0,8.338,11.117,13.259,12.043,14.648.926-1.39,12.043-6.311,12.043-14.648A6.485,6.485,0,0,0,710.528,503.926Z" transform="translate(-692 -503)"/></svg>