<svg xmlns="http://www.w3.org/2000/svg" width="25.939" height="25.939" viewBox="0 0 25.939 25.939"><defs><style>.a{fill:#050505;fill-rule:evenodd;}</style></defs><path class="a" d="M25.8,6.812h0l-3.242,3.242h0a.46.46,0,0,1-.327.136H14.359v1.853H20.38a.926.926,0,0,1,.926.926v5.558a.926.926,0,0,1-.926.926H14.359v6.485h-.926V19.454h-.926v6.485H11.58V19.454H3.706a.462.462,0,0,1-.327-.136L.136,16.076h0a.463.463,0,0,1,0-.655h0l3.242-3.242a.462.462,0,0,1,.327-.136H11.58V10.19H5.558a.926.926,0,0,1-.926-.926V3.706a.926.926,0,0,1,.926-.926H11.58V1.39a1.39,1.39,0,0,1,2.779,0v1.39h7.874a.462.462,0,0,1,.327.136h0L25.8,6.157a.463.463,0,0,1,0,.655ZM3.9,12.969,1.119,15.749,3.9,18.528H20.38V12.969Zm9.535-.926V10.19h-.926v1.853Zm0-10.653a.463.463,0,0,0-.926,0v1.39h.926Zm8.609,2.316H5.558V9.264H22.041l2.779-2.779Z" transform="translate(0)"/></svg>